M48
; DRILL file {KiCad 7.0.10} date Sat Feb 17 13:29:25 2024
; FORMAT={-:-/ absolute / metric / decimal}
; #@! TF.CreationDate,2024-02-17T13:29:25+01:00
; #@! TF.GenerationSoftware,Kicad,Pcbnew,7.0.10
; #@! TF.FileFunction,Plated,1,2,PTH
FMAT,2
METRIC
; #@! TA.AperFunction,Plated,PTH,ComponentDrill
T1C1.520
; #@! TA.AperFunction,Plated,PTH,ComponentDrill
T2C1.700
%
G90
G05
T1
X28.0Y-22.86
X28.0Y-27.94
X28.0Y-33.02
X28.0Y-38.1
X28.0Y-43.18
X28.0Y-48.26
X28.0Y-53.34
X28.0Y-58.42
X28.0Y-63.5
X28.0Y-68.58
X28.0Y-73.66
X28.0Y-78.74
X28.0Y-83.82
X28.0Y-88.9
X28.0Y-93.98
X28.0Y-99.06
X28.0Y-104.14
X28.0Y-109.22
T2
X40.535Y-73.36
X40.535Y-77.32
X40.535Y-81.28
X40.535Y-85.24
X40.535Y-89.2
X40.535Y-93.16
X40.535Y-97.12
X40.535Y-101.08
X40.535Y-105.04
X40.64Y-26.52
X40.64Y-30.48
X40.64Y-34.44
X40.64Y-38.4
X40.64Y-42.36
X40.64Y-46.32
X40.64Y-50.28
X40.64Y-54.24
X40.64Y-58.2
M30
