G04 #@! TF.GenerationSoftware,KiCad,Pcbnew,7.0.10*
G04 #@! TF.CreationDate,2024-02-17T13:29:22+01:00*
G04 #@! TF.ProjectId,System_11a_output_adapter,53797374-656d-45f3-9131-615f6f757470,rev?*
G04 #@! TF.SameCoordinates,Original*
G04 #@! TF.FileFunction,Copper,L1,Top*
G04 #@! TF.FilePolarity,Positive*
%FSLAX46Y46*%
G04 Gerber Fmt 4.6, Leading zero omitted, Abs format (unit mm)*
G04 Created by KiCad (PCBNEW 7.0.10) date 2024-02-17 13:29:22*
%MOMM*%
%LPD*%
G01*
G04 APERTURE LIST*
G04 Aperture macros list*
%AMRoundRect*
0 Rectangle with rounded corners*
0 $1 Rounding radius*
0 $2 $3 $4 $5 $6 $7 $8 $9 X,Y pos of 4 corners*
0 Add a 4 corners polygon primitive as box body*
4,1,4,$2,$3,$4,$5,$6,$7,$8,$9,$2,$3,0*
0 Add four circle primitives for the rounded corners*
1,1,$1+$1,$2,$3*
1,1,$1+$1,$4,$5*
1,1,$1+$1,$6,$7*
1,1,$1+$1,$8,$9*
0 Add four rect primitives between the rounded corners*
20,1,$1+$1,$2,$3,$4,$5,0*
20,1,$1+$1,$4,$5,$6,$7,0*
20,1,$1+$1,$6,$7,$8,$9,0*
20,1,$1+$1,$8,$9,$2,$3,0*%
G04 Aperture macros list end*
G04 #@! TA.AperFunction,ComponentPad*
%ADD10RoundRect,0.250000X-1.800000X1.330000X-1.800000X-1.330000X1.800000X-1.330000X1.800000X1.330000X0*%
G04 #@! TD*
G04 #@! TA.AperFunction,ComponentPad*
%ADD11O,4.100000X3.160000*%
G04 #@! TD*
G04 #@! TA.AperFunction,ComponentPad*
%ADD12R,3.000000X3.000000*%
G04 #@! TD*
G04 #@! TA.AperFunction,ComponentPad*
%ADD13C,3.000000*%
G04 #@! TD*
G04 #@! TA.AperFunction,Conductor*
%ADD14C,1.750000*%
G04 #@! TD*
G04 APERTURE END LIST*
D10*
X40535000Y-73360000D03*
D11*
X40535000Y-77320000D03*
X40535000Y-81280000D03*
X40535000Y-85240000D03*
X40535000Y-89200000D03*
X40535000Y-93160000D03*
X40535000Y-97120000D03*
X40535000Y-101080000D03*
X40535000Y-105040000D03*
D10*
X40640000Y-26520000D03*
D11*
X40640000Y-30480000D03*
X40640000Y-34440000D03*
X40640000Y-38400000D03*
X40640000Y-42360000D03*
X40640000Y-46320000D03*
X40640000Y-50280000D03*
X40640000Y-54240000D03*
X40640000Y-58200000D03*
D12*
X28000000Y-109220000D03*
D13*
X28000000Y-104140000D03*
X28000000Y-99060000D03*
X28000000Y-93980000D03*
X28000000Y-88900000D03*
X28000000Y-83820000D03*
X28000000Y-78740000D03*
X28000000Y-73660000D03*
X28000000Y-68580000D03*
X28000000Y-63500000D03*
X28000000Y-58420000D03*
X28000000Y-53340000D03*
X28000000Y-48260000D03*
X28000000Y-43180000D03*
X28000000Y-38100000D03*
X28000000Y-33020000D03*
X28000000Y-27940000D03*
X28000000Y-22860000D03*
D14*
X27940000Y-109220000D02*
X35560000Y-109220000D01*
X39740000Y-105040000D02*
X40535000Y-105040000D01*
X35560000Y-109220000D02*
X39740000Y-105040000D01*
X35560000Y-104140000D02*
X38620000Y-101080000D01*
X27940000Y-104140000D02*
X35560000Y-104140000D01*
X38620000Y-101080000D02*
X40535000Y-101080000D01*
X37500000Y-97120000D02*
X40535000Y-97120000D01*
X27940000Y-99060000D02*
X35560000Y-99060000D01*
X35560000Y-99060000D02*
X37500000Y-97120000D01*
X27940000Y-93980000D02*
X35560000Y-93980000D01*
X35560000Y-93980000D02*
X36380000Y-93160000D01*
X36380000Y-93160000D02*
X40535000Y-93160000D01*
X35860000Y-89200000D02*
X40535000Y-89200000D01*
X27940000Y-88900000D02*
X35560000Y-88900000D01*
X35560000Y-88900000D02*
X35860000Y-89200000D01*
X35560000Y-83820000D02*
X36980000Y-85240000D01*
X27940000Y-83820000D02*
X35560000Y-83820000D01*
X36980000Y-85240000D02*
X40535000Y-85240000D01*
X27940000Y-78740000D02*
X35560000Y-78740000D01*
X38100000Y-81280000D02*
X40535000Y-81280000D01*
X35560000Y-78740000D02*
X38100000Y-81280000D01*
X27940000Y-73660000D02*
X35560000Y-73660000D01*
X35560000Y-73660000D02*
X39220000Y-77320000D01*
X39220000Y-77320000D02*
X40535000Y-77320000D01*
X35755000Y-68580000D02*
X40535000Y-73360000D01*
X27940000Y-68580000D02*
X35755000Y-68580000D01*
X35340000Y-63500000D02*
X40640000Y-58200000D01*
X27940000Y-63500000D02*
X35340000Y-63500000D01*
X39740000Y-54240000D02*
X40640000Y-54240000D01*
X35560000Y-58420000D02*
X39740000Y-54240000D01*
X27940000Y-58420000D02*
X35560000Y-58420000D01*
X35560000Y-53340000D02*
X38620000Y-50280000D01*
X27940000Y-53340000D02*
X35560000Y-53340000D01*
X38620000Y-50280000D02*
X40640000Y-50280000D01*
X35560000Y-48260000D02*
X37500000Y-46320000D01*
X27940000Y-48260000D02*
X35560000Y-48260000D01*
X37500000Y-46320000D02*
X40640000Y-46320000D01*
X35560000Y-43180000D02*
X36380000Y-42360000D01*
X27940000Y-43180000D02*
X35560000Y-43180000D01*
X36380000Y-42360000D02*
X40640000Y-42360000D01*
X35860000Y-38400000D02*
X40640000Y-38400000D01*
X35560000Y-38100000D02*
X35860000Y-38400000D01*
X27940000Y-38100000D02*
X35560000Y-38100000D01*
X36980000Y-34440000D02*
X40640000Y-34440000D01*
X28000000Y-33020000D02*
X35560000Y-33020000D01*
X35560000Y-33020000D02*
X36980000Y-34440000D01*
X35560000Y-30480000D02*
X40640000Y-30480000D01*
X27940000Y-27940000D02*
X33020000Y-27940000D01*
X33020000Y-27940000D02*
X35560000Y-30480000D01*
X35560000Y-22860000D02*
X39220000Y-26520000D01*
X27940000Y-22860000D02*
X35560000Y-22860000D01*
X39220000Y-26520000D02*
X40640000Y-26520000D01*
M02*
